<?xml version="1.0" encoding="UTF-8"?>
<svg version="1.1" xmlns="http://www.w3.org/2000/svg" width="291" height="282">
<path d="M0 0 C0.86818359 0.7427417 0.86818359 0.7427417 1.75390625 1.50048828 C29.00058743 25.09122979 46.27088912 59.96562863 49 96 C49.95157897 114.87298297 48.71200096 132.72563106 44 151 C45.10794922 150.7834375 45.10794922 150.7834375 46.23828125 150.5625 C54.944678 148.96946171 63.28843477 148.05197557 72 150 C72 150.99 72 151.98 72 153 C70.82824219 152.97679687 69.65648437 152.95359375 68.44921875 152.9296875 C64.38071219 152.86553462 60.32041251 152.91386007 56.25244141 152.99316406 C54.37867399 152.99885076 52.50501379 152.88540175 50.63671875 152.7421875 C47.22584754 152.75183636 45.76622398 152.95336807 43 155 C40.27026357 159.54052728 38.68533754 164.61916918 36.95703125 169.6015625 C31.15589454 186.25444505 19.94417311 200.29958502 8 213 C7.19369141 213.90298828 7.19369141 213.90298828 6.37109375 214.82421875 C-11.89754998 234.46644472 -41.92511091 246.91244037 -68.38769531 248.15966797 C-107.71999804 249.39553302 -142.59155566 238.83598948 -172 211.875 C-191.73699547 193.18596002 -210.11048696 167.32122636 -215 140 C-215.75726236 136.55527939 -216.51695106 133.11113549 -217.28125 129.66796875 C-220.8179127 111.61945636 -220.48848523 91.84696609 -216 74 C-215.75854248 72.98583008 -215.75854248 72.98583008 -215.51220703 71.95117188 C-211.34083913 54.78485093 -203.77268084 38.99511754 -193 25 C-192.26910156 24.04738281 -191.53820312 23.09476563 -190.78515625 22.11328125 C-167.27663879 -7.50992968 -133.93551879 -24.34788482 -96.80859375 -29.4375 C-62.17751854 -32.97579632 -26.44460487 -22.75669763 0 0 Z M-117 -9 C-117.67272949 -8.81808105 -118.34545898 -8.63616211 -119.03857422 -8.44873047 C-134.51106672 -4.1300178 -148.21240302 3.42612805 -161 13 C-161.9178125 13.68191406 -162.835625 14.36382812 -163.78125 15.06640625 C-169.21307207 19.24661872 -173.6414192 23.73425047 -178 29 C-178.53882813 29.57878906 -179.07765625 30.15757813 -179.6328125 30.75390625 C-201.93906216 54.77203088 -212.1122151 88.49546854 -211.2890625 120.8125 C-211.05964049 125.94075659 -210.52792974 130.98933871 -209.75 136.0625 C-209.64091309 136.80636963 -209.53182617 137.55023926 -209.41943359 138.31665039 C-208.61511021 142.83635748 -207.65228653 145.21814568 -204 148 C-187.62406372 159.61187423 -187.62406372 159.61187423 -168.49609375 163.56640625 C-158.32723685 161.25891916 -150.00466306 154.74387938 -142.04296875 148.37109375 C-135.25032326 143.07823648 -127.99773654 137.83878269 -119.125 138.125 C-111.27827007 139.45267864 -106.50815665 143.24988318 -101.13671875 148.90625 C-93.48120532 156.40781343 -84.66228436 161.59546719 -73.8125 161.5 C-73.0707251 161.49572998 -72.3289502 161.49145996 -71.56469727 161.48706055 C-61.37554888 161.17556341 -53.29659186 156.58424452 -45 151 C-45.4125 150.175 -45.825 149.35 -46.25 148.5 C-47.15266957 146.69466086 -48.05508676 144.88919183 -48.95361328 143.08178711 C-50.58241585 139.81014748 -52.22793843 136.5507703 -53.9296875 133.31640625 C-65.95042844 110.2670451 -80.78803306 78.57924855 -78 52 C-76.48205663 47.73530196 -75.75096319 46.50064212 -72 44 C-67.84120044 43.63836526 -64.67298491 43.95945283 -61 46 C-60.28440048 47.30772304 -59.62361771 48.64599735 -59 50 C-58.63261719 50.64195313 -58.26523438 51.28390625 -57.88671875 51.9453125 C-50.84930987 64.73643352 -48.38870523 79.74545008 -46 94 C-44.30857323 90.94273046 -43.47530877 88.11901757 -42.7734375 84.703125 C-39.98786031 71.78863364 -36.86754147 60.33975094 -30 49 C-29.484375 48.14019531 -28.96875 47.28039062 -28.4375 46.39453125 C-25.2544352 41.64588294 -21.57799691 38.54584023 -16 37 C-11.98899009 37 -9.76567601 37.55483953 -6.3125 39.5625 C2.30143447 48.64205255 2.55010933 60.9585842 2.30859375 72.76171875 C1.66948432 87.25969065 -3.57854929 100.15709857 -10 113 C-9.94906935 119.13714315 -8.34812473 124.38491913 -6 130 C-3.71895474 126.57843211 -3.06005981 123.37560178 -2.1875 119.4375 C0.09771333 109.78206657 3.48010004 99.62702578 11.9375 93.625 C14.73399024 92.77757871 17.09767735 92.74762412 20 93 C22.5510227 95.5510227 22.38479488 96.63054187 22.5 100.1875 C22.14938851 117.49120804 9.57005328 134.98765578 -0.4453125 148.42578125 C-0.95835937 149.27527344 -1.47140625 150.12476563 -2 151 C-1.35549139 154.02767526 -1.35549139 154.02767526 0.609375 154.94921875 C12.55429111 159.06890697 28.35020667 158.11833095 40 153 C43.01191013 149.98219572 43.42064574 147.13669772 44 143 C44.56183648 140.62484295 45.12436508 138.24984953 45.6875 135.875 C52.31793279 103.79704023 45.63889561 72.21449145 28.1875 44.75 C23.70029936 38.26946366 18.45797461 32.65812601 13 27 C11.83017578 25.71802734 11.83017578 25.71802734 10.63671875 24.41015625 C-11.11883487 1.26517232 -44.25045815 -12.07145236 -75.64453125 -13.3125 C-89.88330186 -13.66040335 -103.25415776 -12.79593601 -117 -9 Z M-29.1875 50.125 C-39.44345754 66.7285637 -42.30107002 87.88069849 -44 107 C-44.99 107 -45.98 107 -47 107 C-47.12528076 106.14994385 -47.25056152 105.2998877 -47.37963867 104.42407227 C-50.47043052 73.72772662 -50.47043052 73.72772662 -64.5 47.4375 C-67.34846883 45.79963042 -68.77393821 45.40572546 -72 46 C-74.5048111 47.87860833 -74.98700625 48.96101874 -76 52 C-79.55687022 83.87676093 -60.06472108 121.90368451 -43 148 C-38.24569465 145.84570539 -34.78404395 142.52920017 -31 139 C-29.700625 137.824375 -29.700625 137.824375 -28.375 136.625 C-26.21005087 132.49191531 -27.73084701 129.30825987 -29 125 C-31.14812301 116.62098602 -31.23953386 109.38389597 -29 101 C-25.12696734 100.69623273 -22.71693475 100.58317747 -19.3125 102.5625 C-16.51231669 105.51404457 -14.87250286 108.3936982 -13 112 C-4.2974219 104.66607662 -0.80250105 86.34363739 0.75 75.625 C0.8325 74.42875 0.915 73.2325 1 72 C1.07734375 71.01773438 1.07734375 71.01773438 1.15625 70.015625 C1.55368823 60.9407853 0.21918457 49.95085334 -6 43 C-8.78630787 40.13838651 -10.38920916 39.12676791 -14.3125 38.3125 C-21.13754165 39.58496539 -25.24856532 44.66099061 -29.1875 50.125 Z M9.515625 98.30078125 C-0.91820608 109.13798209 -1.86437603 125.86575588 -4 140 C-6 139 -6 139 -6.74609375 137.25 C-6.97425781 136.5075 -7.20242187 135.765 -7.4375 135 C-7.69273437 134.195625 -7.94796875 133.39125 -8.2109375 132.5625 C-8.73697917 130.85416667 -9.26302083 129.14583333 -9.7890625 127.4375 C-10.04429687 126.633125 -10.29953125 125.82875 -10.5625 125 C-10.79066406 124.2575 -11.01882812 123.515 -11.25390625 122.75 C-11.86256408 120.79897553 -11.86256408 120.79897553 -14 120 C-16.97 124.29 -19.94 128.58 -23 133 C-18.90650559 141.18698881 -14.58776985 145.9920719 -7 151 C-3.58116003 149.58851013 -2.05462234 148.07360749 -0.046875 144.9921875 C0.48631348 144.1779834 1.01950195 143.3637793 1.56884766 142.52490234 C2.12362793 141.65043457 2.6784082 140.7759668 3.25 139.875 C3.82411621 138.97861816 4.39823242 138.08223633 4.98974609 137.15869141 C17.44470574 118.40530078 17.44470574 118.40530078 21 97 C19.74882038 95.07994865 19.74882038 95.07994865 18 94 C14.46578515 94 12.10682778 96.03006934 9.515625 98.30078125 Z M-25 102 C-28.24849977 103.72226496 -28.24849977 103.72226496 -29 107 C-29.62301048 114.87149778 -28.74583362 121.61240001 -26 129 C-25.01 129 -24.02 129 -23 129 C-18.9039486 124.74226236 -15.23124685 120.27392739 -14.625 114.3125 C-16.41390207 110.00287229 -18.72367962 106.34152079 -22 103 C-22.99 102.67 -23.98 102.34 -25 102 Z M-28.2421875 139.08203125 C-29.54542969 140.43361328 -29.54542969 140.43361328 -30.875 141.8125 C-33.77920133 144.81639779 -36.5725359 147.60077513 -40 150 C-39.12226706 155.58441679 -34.9035126 159.19713045 -31 163 C-27.74842068 165.21107394 -26.01255928 165.95597568 -22.125 166.125 C-16.32442655 164.03679356 -12.27199517 159.31167314 -8 155 C-9.40103451 151.71900591 -10.99346316 149.92585065 -13.75 147.6875 C-17.17430887 144.81108055 -20.01143032 141.79552851 -22.7734375 138.28515625 C-23.38058594 137.64900391 -23.38058594 137.64900391 -24 137 C-26.26569898 136.77318297 -26.26569898 136.77318297 -28.2421875 139.08203125 Z M-138.875 148.75 C-140.26743514 149.82953202 -141.6619727 150.90635765 -143.05859375 151.98046875 C-143.73003418 152.49915527 -144.40147461 153.0178418 -145.09326172 153.55224609 C-154.51197629 160.70371567 -163.13214786 166.16699715 -175.24609375 164.56640625 C-183.24969106 162.92027631 -189.67681968 159.14909993 -196.4375 154.68359375 C-199.55167438 152.63754321 -202.74394361 150.80892022 -206 149 C-202.01801219 168.57810673 -190.04630139 185.35460038 -177 200 C-176.12408203 201.00353516 -176.12408203 201.00353516 -175.23046875 202.02734375 C-169.67667718 208.00294228 -162.73538817 212.47178468 -156 217 C-154.61361328 217.94746094 -154.61361328 217.94746094 -153.19921875 218.9140625 C-139.15608485 227.81549904 -122.37442283 232.76537288 -106 235 C-105.21367188 235.12890625 -104.42734375 235.2578125 -103.6171875 235.390625 C-68.82567898 240.41753498 -30.42977839 228.86358566 -2.47460938 208.08984375 C14.29019969 195.06531485 29.39376211 178.62104748 38 159 C38 158.01 38 157.02 38 156 C37.28714844 156.13277344 36.57429687 156.26554687 35.83984375 156.40234375 C32.89502358 156.94533213 29.94800012 157.47457413 27 158 C25.845 158.20625 24.69 158.4125 23.5 158.625 C13.10551637 159.73869467 4.8423254 158.44481389 -5 155 C-5.65355469 155.79664063 -5.65355469 155.79664063 -6.3203125 156.609375 C-10.98147437 162.13819904 -15.02959508 166.70894381 -22.4375 168 C-26.2076184 168.2332682 -28.98554103 167.72770063 -32.2265625 165.58984375 C-36.0123467 162.19597994 -38.99980564 158.08338142 -42 154 C-46.11956507 154.61226563 -49.26279913 156.003198 -52.9375 157.9375 C-63.71702782 163.59849074 -74.16737198 165.64342791 -86 162 C-92.9414876 158.98007269 -98.33321924 154.16119964 -103.71459961 148.95922852 C-108.52721488 144.32458361 -112.98806889 140.43834822 -119.87768555 139.90161133 C-127.39796687 140.2502451 -133.20262737 144.17934804 -138.875 148.75 Z " fill="#ABC0A3" transform="translate(219,31)"/>
</svg>
